# xmcd CD database file
#
# Track frame offsets:
#	150
#	3309
#	9957
#	38682
#	57599
#	74126
#	100799
#	122192
#	127844
#	160414
#
# Disc length: 2513 seconds
#
# Revision: 0
# Processed by: cddbd v1.5.1PL0 Copyright (c) Steve Scherf et al.
# Submitted via: CDex 1.51
#
DISCID=7f09cf0a
DTITLE=Lullatone - Little Songs About Raindrops
DYEAR=2004
DGENRE=Electronica
TTITLE0=My Petit Prelude
TTITLE1=Yesterday
TTITLE2=Wake Up Wake Up
TTITLE3=Leaves Falling
TTITLE4=Puddles On The Playground
TTITLE5=Morning Coffee
TTITLE6=Afternoon Nap (For Pets)
TTITLE7=Pitter-Patter Interlude
TTITLE8=Drip Drops Jumping On An Umbrella
TTITLE9=A Miniature Finale
EXTD=YEAR: 2004
EXTT0=
EXTT1=
EXTT2=
EXTT3=
EXTT4=
EXTT5=
EXTT6=
EXTT7=
EXTT8=
EXTT9=
PLAYORDER=
